<svg width="500" height="500" viewBox="0 0 500 500" fill="none" xmlns="http://www.w3.org/2000/svg">
<circle cx="250" cy="250" r="250" fill="white"/>
<circle cx="250" cy="250" r="245" fill="black"/>
<line x1="248" y1="25" x2="248" stroke="white" stroke-width="4"/>
<line x1="450" y1="148.768" x2="471.651" y2="136.268" stroke="white" stroke-width="4"/>
<line x1="27" y1="363.768" x2="48.6506" y2="351.268" stroke="white" stroke-width="4"/>
<line x1="28" y1="136.268" x2="49.6506" y2="148.768" stroke="white" stroke-width="4"/>
<line x1="452" y1="351.268" x2="473.651" y2="363.768" stroke="white" stroke-width="4"/>
<line x1="500" y1="252" x2="475" y2="252" stroke="white" stroke-width="4"/>
<line x1="25" y1="252" y2="252" stroke="white" stroke-width="4"/>
<line x1="373.268" y1="62.6506" x2="385.768" y2="41" stroke="white" stroke-width="4"/>
<line x1="111.268" y1="458.651" x2="123.768" y2="437" stroke="white" stroke-width="4"/>
<line x1="114.732" y1="41" x2="127.232" y2="62.6506" stroke="white" stroke-width="4"/>
<line x1="376.732" y1="437" x2="389.232" y2="458.651" stroke="white" stroke-width="4"/>
<line x1="248" y1="500" x2="248" y2="475" stroke="white" stroke-width="4"/>
<path d="M249.5 42L256.861 57H242.139L249.5 42Z" fill="#C4C4C4"/>
<path d="M249.5 72L242.139 57L256.861 57L249.5 72Z" fill="#C4C4C4"/>
</svg>
