<svg width="184" height="224" viewBox="0 0 184 224" fill="none" xmlns="http://www.w3.org/2000/svg">
<rect width="184" height="224" fill="#EDD787"/>
<path d="M91 64.3624L112.75 85.4794V64.3624V117.041" stroke="white" stroke-width="6"/>
<path d="M96.5 69.8775V69.8775C92.2931 65.4843 86.4743 63 80.3917 63H72.4929C69.3585 63 66.36 64.2802 64.1922 66.544V66.544C62.1436 68.6833 61 71.5309 61 74.4929V79.5057C61 82.573 62.3687 85.4804 64.7328 87.4348V87.4348C66.577 88.9595 68.8951 89.7936 71.2879 89.7936H86.329C88.6491 89.7936 90.8994 90.5868 92.7067 92.0415V92.0415C95.1052 93.9722 96.5 96.8855 96.5 99.9646V107.213C96.5 110.379 94.9012 113.332 92.2492 115.063V115.063C90.7254 116.058 88.9451 116.587 87.1255 116.587H75.4505C70.3186 116.587 65.2976 115.094 61 112.289V112.289" stroke="white" stroke-width="6"/>
<path d="M64 112.5V135.888M64 162V135.888M64 135.888L84.5 116.587M64 135.888L90.5 162" stroke="white" stroke-width="6"/>
<path d="M116.902 122.721L116.352 122.076C112.647 117.729 107.223 115.225 101.511 115.225C95.0771 115.225 89.0534 118.404 85.4179 123.712C83.193 126.961 82 130.809 82 134.747V144.617C82 148.678 83.4216 152.61 86.018 155.732C89.3206 159.703 94.2181 162 99.383 162H102.72C107.719 162 112.522 160.059 116.117 156.585C119.877 152.952 122 147.948 122 142.72V136.562C122 131.489 120.193 126.582 116.902 122.721Z" stroke="white" stroke-width="6"/>
</svg>
